<svg width="117" height="13" viewBox="0 0 117 13" fill="none" xmlns="http://www.w3.org/2000/svg">
<path d="M0.824 12V0.799999H5.384C6.57867 0.799999 7.624 1.04 8.52 1.52C9.42667 1.98933 10.1307 2.64533 10.632 3.488C11.1333 4.33067 11.384 5.30133 11.384 6.4C11.384 7.49867 11.1333 8.46933 10.632 9.312C10.1307 10.1547 9.42667 10.816 8.52 11.296C7.624 11.7653 6.57867 12 5.384 12H0.824ZM2.008 10.976H5.32C6.312 10.976 7.17067 10.784 7.896 10.4C8.632 10.0053 9.20267 9.46667 9.608 8.784C10.0133 8.09067 10.216 7.296 10.216 6.4C10.216 5.49333 10.0133 4.69867 9.608 4.016C9.20267 3.33333 8.632 2.8 7.896 2.416C7.17067 2.02133 6.312 1.824 5.32 1.824H2.008V10.976ZM14.0428 12V0.799999H18.2348C19.1841 0.799999 20.0001 0.954666 20.6828 1.264C21.3654 1.56267 21.8881 2 22.2508 2.576C22.6241 3.14133 22.8108 3.82933 22.8108 4.64C22.8108 5.42933 22.6241 6.112 22.2508 6.688C21.8881 7.25333 21.3654 7.69067 20.6828 8C20.0001 8.29867 19.1841 8.448 18.2348 8.448H14.6988L15.2268 7.904V12H14.0428ZM21.6908 12L18.8108 7.936H20.0908L22.9868 12H21.6908ZM15.2268 8L14.6988 7.44H18.2028C19.3228 7.44 20.1708 7.19467 20.7468 6.704C21.3334 6.21333 21.6267 5.52533 21.6267 4.64C21.6267 3.744 21.3334 3.05067 20.7468 2.56C20.1708 2.06933 19.3228 1.824 18.2028 1.824H14.6988L15.2268 1.264V8ZM26.6613 5.808H32.5813V6.816H26.6613V5.808ZM26.7893 10.976H33.5253V12H25.6053V0.799999H33.2853V1.824H26.7893V10.976ZM34.5164 12L39.6364 0.799999H40.8044L45.9244 12H44.6764L39.9724 1.488H40.4524L35.7484 12H34.5164ZM36.5324 9.008L36.8844 8.048H43.3964L43.7484 9.008H36.5324ZM47.7771 12V0.799999H48.7531L53.8731 9.536H53.3611L58.4331 0.799999H59.4091V12H58.2731V2.576H58.5451L53.8731 10.576H53.3131L48.6091 2.576H48.9131V12H47.7771ZM66.1464 12.096C65.3144 12.096 64.5144 11.9627 63.7464 11.696C62.989 11.4187 62.4024 11.0667 61.9864 10.64L62.4504 9.728C62.845 10.112 63.373 10.4373 64.0344 10.704C64.7064 10.96 65.4104 11.088 66.1464 11.088C66.8504 11.088 67.421 11.0027 67.8584 10.832C68.3064 10.6507 68.6317 10.4107 68.8344 10.112C69.0477 9.81333 69.1544 9.48267 69.1544 9.12C69.1544 8.68267 69.0264 8.33067 68.7704 8.064C68.525 7.79733 68.1997 7.58933 67.7944 7.44C67.389 7.28 66.941 7.14133 66.4504 7.024C65.9597 6.90667 65.469 6.784 64.9784 6.656C64.4877 6.51733 64.0344 6.336 63.6184 6.112C63.213 5.888 62.8824 5.59467 62.6264 5.232C62.381 4.85867 62.2584 4.37333 62.2584 3.776C62.2584 3.22133 62.4024 2.71467 62.6904 2.256C62.989 1.78667 63.4424 1.41333 64.0504 1.136C64.6584 0.848 65.437 0.704 66.3864 0.704C67.0157 0.704 67.6397 0.794666 68.2584 0.976C68.877 1.14667 69.4104 1.38667 69.8584 1.696L69.4584 2.64C68.9784 2.32 68.4664 2.08533 67.9224 1.936C67.389 1.78667 66.8717 1.712 66.3704 1.712C65.6984 1.712 65.1437 1.80267 64.7064 1.984C64.269 2.16533 63.9437 2.41067 63.7304 2.72C63.5277 3.01867 63.4264 3.36 63.4264 3.744C63.4264 4.18133 63.549 4.53333 63.7944 4.8C64.0504 5.06667 64.381 5.27467 64.7864 5.424C65.2024 5.57333 65.6557 5.70667 66.1464 5.824C66.637 5.94133 67.1224 6.06933 67.6024 6.208C68.093 6.34667 68.541 6.528 68.9464 6.752C69.3624 6.96533 69.693 7.25333 69.9384 7.616C70.1944 7.97867 70.3224 8.45333 70.3224 9.04C70.3224 9.584 70.173 10.0907 69.8744 10.56C69.5757 11.0187 69.117 11.392 68.4984 11.68C67.8904 11.9573 67.1064 12.096 66.1464 12.096ZM81.0941 0.799999H82.2621V12H81.0941V0.799999ZM74.0861 12H72.9021V0.799999H74.0861V12ZM81.2061 6.832H73.9581V5.792H81.2061V6.832ZM84.1258 12L89.2458 0.799999H90.4138L95.5338 12H94.2858L89.5818 1.488H90.0618L85.3578 12H84.1258ZM86.1418 9.008L86.4938 8.048H93.0058L93.3578 9.008H86.1418ZM97.3865 12V0.799999H101.579C102.528 0.799999 103.344 0.954666 104.027 1.264C104.709 1.56267 105.232 2 105.595 2.576C105.968 3.14133 106.155 3.82933 106.155 4.64C106.155 5.42933 105.968 6.112 105.595 6.688C105.232 7.25333 104.709 7.69067 104.027 8C103.344 8.29867 102.528 8.448 101.579 8.448H98.0425L98.5705 7.904V12H97.3865ZM105.035 12L102.155 7.936H103.435L106.331 12H105.035ZM98.5705 8L98.0425 7.44H101.547C102.667 7.44 103.515 7.19467 104.091 6.704C104.677 6.21333 104.97 5.52533 104.97 4.64C104.97 3.744 104.677 3.05067 104.091 2.56C103.515 2.06933 102.667 1.824 101.547 1.824H98.0425L98.5705 1.264V8ZM110.005 5.808H115.925V6.816H110.005V5.808ZM110.133 10.976H116.869V12H108.949V0.799999H116.629V1.824H110.133V10.976Z" fill="#FF4E50"/>
</svg>
